<?xml version="1.0" encoding="utf-8"?>
<!-- Generator: Adobe Illustrator 19.1.1, SVG Export Plug-In . SVG Version: 6.00 Build 0)  -->
<svg version="1.1" id="Layer_1" xmlns="http://www.w3.org/2000/svg" xmlns:xlink="http://www.w3.org/1999/xlink" x="0px" y="0px"
	 viewBox="0 0 100 100" style="enable-background:new 0 0 100 100;" xml:space="preserve">
<style type="text/css">
	.st0{fill:#B4B4B4;}
	.st1{opacity:0.5;fill:#FFFFFF;}
	.st2{fill:#FFFFFF;}
</style>
<g>
	<polygon class="st0" points="49.8,49.8 49.8,49.8 59.6,49.8 49.8,29.3 41.2,49.8 	"/>
	<path class="st1" d="M49.8,0L2.8,16.6l7.5,61.6L49.9,100l39.9-22.1l7.5-61.6L49.8,0z M69.8,73.2l-6.4-14.8l-13.6,0l-0.1,0H37.3
		L31.5,73l-10.9,0.2L49.7,8.6l0-0.1l0,0.1l0,0l0,0.1l30.4,64.8L69.8,73.2z"/>
</g>
<g>
	<path class="st2" d="M49.7,5.2L8.1,20.1l6.4,55.2l35.3,19.6L85.6,75l6.9-55.2L49.7,5.2z M69.8,73.2l-6.4-14.8l-13.6,0l-0.1,0H37.3
		L31.5,73l-10.9,0.2L49.7,8.6l0-0.1l0,0.1l0,0l0,0.1l30.4,64.8L69.8,73.2z"/>
	<polygon class="st2" points="49.8,49.8 49.8,49.8 59.6,49.8 49.8,29.3 41.2,49.8 	"/>
</g>
</svg>
