<?xml version="1.0" encoding="utf-8"?>
<!-- Generator: Adobe Illustrator 19.1.1, SVG Export Plug-In . SVG Version: 6.00 Build 0)  -->
<svg version="1.1" id="Layer_1" xmlns="http://www.w3.org/2000/svg" xmlns:xlink="http://www.w3.org/1999/xlink" x="0px" y="0px"
	 viewBox="0 0 100 100" style="enable-background:new 0 0 100 100;" xml:space="preserve">
<style type="text/css">
	.st0{fill:#FFFFFF;}
</style>
<path class="st0" d="M16.3,17.2c0.1-0.1,0.2-0.2,0.3-0.3c4.2-4.2,9.2-7.6,14.7-9.9C37,4.6,43,3.4,49.2,3.4c5.9,0,11.6,1.1,17,3.2
	c3.2,0.5,7.4,1.6,10.9,3.6c-7.9-5.6-17.5-8.9-27.9-8.9c-13.5,0-25.6,5.5-34.4,14.4C15.2,16.3,15.7,16.8,16.3,17.2z"/>
<path class="st0" d="M33.4,53.5c-0.3-0.3-0.6-0.6-0.9-0.9c-0.1,0.7-0.1,1.4-0.1,2.2c0,1.4,0.2,3,0.7,4.6c0.5,1.6,1.3,3.1,2.6,4.5
	c0.8,1,1.9,1.9,3.2,2.7l-0.1,0.1c2.5,0,6.5,0,8.6-0.7c3.1-1,8-4.9,8-4.9c1.2-1.2,2.7-0.6,3.9-0.6s1.6-1.8,0-3.7s-7.4-3.7-11.7-0.8
	S37.1,56.5,33.4,53.5z M36.4,26.4c-0.3,1-0.5,2.3-0.5,3.7c0,1.4,0.2,3,0.9,4.5c0.5,1.2,1,2.1,1.5,2.8c0.3,0.5,0.6,0.9,0.9,1.3
	c0.6-0.5,1.3-1.1,1.8-1.4c1.2-0.8,5.9-3.1,6.6-3.7s1.8-3.9,0.8-4.9s-7.6-0.4-9.6-0.8C37.9,27.7,37.1,27,36.4,26.4z M37.7,46.5
	C37.7,46.5,37.7,46.5,37.7,46.5C37.7,46.5,37.8,46.5,37.7,46.5L37.7,46.5z M98.5,37.3c0,1.7-1.5,4-1.8,4.4c0.1-0.2,0.2-0.6,0.2-2.2
	c0-2.3,0.6-8-2.3-14.4s-7.2-9.4-7.2-9.4v1.4c-0.6-2.1-6.4-5.9-6.4-5.9v2.1c10.3,9.4,11.3,16,11.3,16c-1.8-5.9-7.2-10.5-11.7-14.8
	S66.7,7.9,66.7,7.9c10.1,5.7,15,14.8,15,14.8c-5.1-4.9-9.2-4.5-9.2-4.5c3.1,2.3,4.5,4.7,7.4,9.2s2.7,15.2,2.7,15.2
	c-1.4-3.5-4.3-4.9-4.3-4.9s0.6,6.2,1,9.6c0.4,3.5-1.4,10.1-1.4,10.1c0-2.5-1.4-3.1-1.4-3.1s0.4,1.4-1.6,8s-5.9,8.8-6.6,8.6
	c-0.6-0.2,0-1.2,0-1.2s-1-0.8-2.5,1.4c-1.2,1.9-3.3,2.9-3.9,3.2c0.7-0.4,0.8-1.8,0.8-1.8s-1.4,0.8-8,1.8c-6.6,1-9.6-1.8-9.6-1.8
	c0.6-0.6,3.5,0,3.5,0c0-0.6-3.3-1.6-6.6-2.1c-2.7-0.3-4-1.6-4.6-2.6c-1.2-0.8-2.3-1.7-3.1-2.7c-1-1.1-1.7-2.3-2.3-3.5
	c-1.1-2.4-1.5-4.8-1.5-7c0-2,0.3-3.8,0.6-5.1c0.3-1.3,0.6-2.1,0.6-2.1l0,0l0,0c0.4-1.2,1.1-2.1,2-2.5c-0.3-0.2-0.6-0.4-0.9-0.5
	c-1.3-0.7-2.9-1-4.3-0.8c-1.5,0.2-2.9,1-4.2,2c-1.2,0.9-2.2,2.3-2.8,3.7c-0.6,1.5-1,3.1-1,4.7c0,1.6,0.3,3.3,0.9,4.8
	c0.6,1.5,1.4,3,2.5,4.3c1,1.3,2.2,2.5,3.6,3.5c-1.4-1-2.7-2.1-3.8-3.4c-1.1-1.3-2.1-2.7-2.8-4.3c-0.7-1.6-1.1-3.3-1.2-5
	c-0.1-1.7,0.1-3.5,0.8-5.2c0.6-1.7,1.6-3.2,3-4.4c0.7-0.6,1.4-1.1,2.2-1.5c0.8-0.4,1.7-0.8,2.6-0.9c0.9-0.2,1.9-0.2,2.8-0.1
	c0.9,0.1,1.8,0.4,2.7,0.8c0.8,0.4,1.6,0.9,2.3,1.5c0.4,0.3,0.7,0.6,1,0.9c0.2,0.2,0.3,0.3,0.5,0.5c0.1,0.1,0.2,0.3,0.4,0.4
	c0.7-1.9,0.2-5.1,0.1-5.7c-0.4-0.5-0.9-1.2-1.6-2.2c-0.5-0.7-1-1.7-1.5-2.8c-0.8-1.8-1.1-3.6-1.1-5.3c0-1.9,0.4-3.6,0.7-4.8
	c0.1-0.4,0.2-0.7,0.3-1c1.2-5,6.7-10,6.7-10c-7.8-1-13.1,6.2-13.1,6.2c0,0,0,0-0.1,0C27.9,21,26,23.2,25.8,25c0,0,0.1-3.1,0.8-5.3
	c-3-0.9-6.5-0.5-8.3-0.1l0,0.1c-1.8,0.3-3.5,1-5,1.9c-1.5,0.9-2.8,2-3.9,3c-2.1,2.1-3.3,4-3.4,4l0,0l0,0l-0.1,0
	C2.4,34,0,45.7,0,45.7c0.4-1.8,2.3-4.1,2.3-4.1c-2.1,3.1-1.6,17.2-1.6,17.2c0-2.3,1.2-4.9,1.2-4.9c0.4,4.7,2.5,19.9,15.8,31.4
	s24.6,12.5,24.6,12.5c-2.7-0.8-3.3-2.1-3.3-2.1c8.6,3.5,13.9,2.9,13.9,2.9c-1.4-0.8-1.6-1.4-1.6-1.4c9.2,0.4,21.5-2.9,24.4-4.9
	s5.3-6.2,5.3-6.2c7.4-3.5,12.5-10.7,13.9-14.4c1.4-3.7,0-7.6,0-7.6s0-0.2,3.5-8C101.9,48.3,98.5,37.3,98.5,37.3z M12.3,19.8
	c0.9-0.5,1.8-1,2.8-1.4c-3.9-3.3-3.6-7.6-3.6-7.6c-4,3.8-4.9,10.3-5.1,14.1c0.1-0.1,0.1-0.1,0.2-0.2C7.9,23.2,9.8,21.3,12.3,19.8z"
	/>
</svg>
