<?xml version="1.0" encoding="utf-8"?>
<!-- Generator: Adobe Illustrator 19.1.1, SVG Export Plug-In . SVG Version: 6.00 Build 0)  -->
<svg version="1.1" id="Layer_1" xmlns="http://www.w3.org/2000/svg" xmlns:xlink="http://www.w3.org/1999/xlink" x="0px" y="0px"
	 viewBox="0 0 100 100" style="enable-background:new 0 0 100 100;" xml:space="preserve">
<style type="text/css">
	.st0{fill:#FFFFFF;}
</style>
<path class="st0" d="M92.7,12.8c-0.6-0.6-1.4-1-2.3-1c-0.4,0-1.4,0.4-2.8,1.1c-1.4,0.7-2.9,1.5-4.5,2.4c-1.6,0.9-3.4,1.7-5.6,2.4
	c-2.2,0.7-4.2,1.1-6,1.1c-1.7,0-3.2-0.3-4.5-1c-4.3-2-8-3.5-11.2-4.5c-3.2-1-6.6-1.5-10.2-1.5c-6.3,0-13.4,2-21.4,6.1
	c-1.7,0.8-2.8,1.5-3.6,1.9l-0.8-5.6c1.7-1.5,2.8-3.7,2.8-6.1C22.7,3.7,19,0,14.5,0S6.4,3.7,6.4,8.2c0,2.9,1.6,5.5,3.9,6.9l11,80.8
	c0.3,2.4,2.4,4.1,4.7,4.1c0.2,0,0.4,0,0.7,0c2.6-0.4,4.5-2.8,4.1-5.4l-4.4-32.5c8-4,15-6,20.8-6c2.5,0,4.9,0.4,7.3,1.1
	c2.4,0.8,4.3,1.6,5.9,2.4c1.6,0.9,3.4,1.7,5.5,2.4c2.1,0.7,4.2,1.1,6.3,1.1c5.2,0,11.5-2,18.8-5.9c0.9-0.5,1.6-0.9,2-1.4
	s0.6-1.1,0.6-2V15.1C93.6,14.2,93.3,13.4,92.7,12.8z"/>
</svg>
