<?xml version="1.0" encoding="utf-8"?>
<!-- Generator: Adobe Illustrator 19.1.1, SVG Export Plug-In . SVG Version: 6.00 Build 0)  -->
<svg version="1.1" id="Layer_1" xmlns="http://www.w3.org/2000/svg" xmlns:xlink="http://www.w3.org/1999/xlink" x="0px" y="0px"
	 viewBox="0 0 100 100" style="enable-background:new 0 0 100 100;" xml:space="preserve">
<style type="text/css">
	.st0{fill:#FFFFFF;}
</style>
<g id="g11" transform="matrix(1.3463089,0,0,1.3463089,-87.877922,-71.308561)">
	<path id="path13-6" class="st0" d="M108.4,88.8L119,78.2L74.8,53.7c-0.6-0.3-1.2-0.6-1.8-0.7L108.4,88.8z"/>
	<path id="path15" class="st0" d="M120.6,101.2l13.4-7.4c3.7-2,3.7-5.4,0-7.4l-13-7.2l-11.1,11.1L120.6,101.2L120.6,101.2z"/>
	<path id="path17-8" class="st0" d="M70.2,53.2c-1.3,0.7-2.1,2.2-2.1,4.4v65c0,2.2,0.8,3.8,2.2,4.4l36.6-36.7L70.2,53.2z"/>
	<path id="path19-3" class="st0" d="M108.4,91.9l-35.3,35.4c0.6-0.1,1.1-0.4,1.7-0.7l43.8-24.3L108.4,91.9L108.4,91.9z"/>
</g>
</svg>
