<?xml version="1.0" encoding="utf-8"?>
<!-- Generator: Adobe Illustrator 19.1.1, SVG Export Plug-In . SVG Version: 6.00 Build 0)  -->
<svg version="1.1" id="Layer_1" xmlns="http://www.w3.org/2000/svg" xmlns:xlink="http://www.w3.org/1999/xlink" x="0px" y="0px"
	 viewBox="0 0 100 100" style="enable-background:new 0 0 100 100;" xml:space="preserve">
<style type="text/css">
	.st0{fill:#FFFFFF;}
	.st1{opacity:0.5;fill:#FFFFFF;}
</style>
<path class="st0" d="M91.6,42.6c1.5-0.8,2.4-2.4,2.4-4.1v-11c0-1.7-0.9-3.3-2.4-4.1L52.5,0.6c-1.5-0.9-3.3-0.9-4.8,0L8.4,23.4
	C6.9,24.2,6,25.8,6,27.5v45.5c0,1.7,0.9,3.3,2.4,4.1l39.1,22.3c1.4,0.8,3.2,0.8,4.7,0l23.7-13.2c0.7-0.4,1.2-1.2,1.2-2.1
	c0-0.9-0.5-1.7-1.2-2.1L36.3,59.4c-0.7-0.4-1.2-1.2-1.2-2.1V43.1c0-0.8,0.5-1.6,1.2-2.1l12.3-7.1c0.7-0.4,1.6-0.4,2.4,0L63.3,41
	c0.7,0.4,1.2,1.2,1.2,2.1v11.2c0,0.8,0.5,1.6,1.2,2.1s1.6,0.4,2.4,0L91.6,42.6z"/>
<path class="st1" d="M49.5,40.5c0.3-0.2,0.6-0.2,0.9,0l7.6,4.4c0.3,0.2,0.5,0.5,0.5,0.8v8.7c0,0.3-0.2,0.6-0.5,0.8l-7.6,4.4
	c-0.3,0.2-0.6,0.2-0.9,0L42,55.2c-0.3-0.2-0.5-0.5-0.5-0.8v-8.7c0-0.3,0.2-0.6,0.5-0.8L49.5,40.5z"/>
</svg>
