<?xml version="1.0" encoding="utf-8"?>
<!-- Generator: Adobe Illustrator 19.1.1, SVG Export Plug-In . SVG Version: 6.00 Build 0)  -->
<svg version="1.1" id="Layer_1" xmlns="http://www.w3.org/2000/svg" xmlns:xlink="http://www.w3.org/1999/xlink" x="0px" y="0px"
	 viewBox="0 0 100 100" style="enable-background:new 0 0 100 100;" xml:space="preserve">
<style type="text/css">
	.st0{fill:#FFFFFF;}
</style>
<path class="st0" d="M30.1,50.1c0,15.8,0,31.5,0,47.3c0,2-0.7,2.6-2.7,2.6c-8.2,0-16.4,0-24.6,0c-2,0-2.7-0.7-2.7-2.7
	c0-31.5,0-63,0-94.5c0-2.1,0.6-2.7,2.8-2.7c8.2,0,16.4,0,24.6,0c2,0,2.7,0.7,2.7,2.7C30.1,18.5,30.1,34.3,30.1,50.1z"/>
<path class="st0" d="M70.1,30.1c-9.2,0-18.3,0-27.5,0c-1.8,0-2.5-0.7-2.5-2.5c0-8.3,0-16.6,0-24.9c0-1.9,0.7-2.6,2.6-2.6
	c18.3,0,36.5,0,54.8,0c1.9,0,2.6,0.7,2.6,2.6c0,8.3,0,16.6,0,24.9c0,1.8-0.7,2.5-2.5,2.5C88.4,30.1,79.2,30.1,70.1,30.1z"/>
<path class="st0" d="M75,69.9c0-9.1,0-18.2,0-27.3c0-1.8,0.7-2.5,2.5-2.5c6.6,0,13.2,0,19.9,0c1.9,0,2.6,0.7,2.6,2.6
	c0,18.3,0,36.6,0,54.8c0,1.8-0.7,2.5-2.5,2.5c-6.7,0-13.3,0-20,0c-1.8,0-2.5-0.7-2.5-2.5C75,88.3,75,79.1,75,69.9z"/>
<path class="st0" d="M65,70c0,9.1,0,18.2,0,27.3c0,2-0.7,2.6-2.6,2.6c-6.6,0-13.2,0-19.8,0c-1.9,0-2.6-0.7-2.6-2.6
	c0-18.2,0-36.5,0-54.7c0-1.9,0.7-2.6,2.6-2.6c6.6,0,13.2,0,19.8,0c1.9,0,2.5,0.7,2.5,2.6C65,51.8,65,60.9,65,70z"/>
</svg>
