<?xml version="1.0" encoding="utf-8"?>
<!-- Generator: Adobe Illustrator 19.1.1, SVG Export Plug-In . SVG Version: 6.00 Build 0)  -->
<svg version="1.1" id="Layer_1" xmlns="http://www.w3.org/2000/svg" xmlns:xlink="http://www.w3.org/1999/xlink" x="0px" y="0px"
	 viewBox="0 0 100 100" style="enable-background:new 0 0 100 100;" xml:space="preserve">
<style type="text/css">
	.st0{fill:#FFFFFF;}
</style>
<path class="st0" d="M53,45.4l-0.3-0.7c-0.1,0-0.1,0.1-0.2,0.1L53,45.4L53,45.4z M54.9,43.9l-0.5-0.5c0,0.1-0.1,0.1-0.1,0.2
	L54.9,43.9z M56.1,41.9l-0.6-0.3c0,0.1,0,0.1-0.1,0.2L56.1,41.9z M56.4,39.6l-0.7-0.1c0,0.1,0,0.1,0,0.2L56.4,39.6z M55.9,37.2
	l-0.7,0.2c0,0.1,0.1,0.1,0.1,0.2L55.9,37.2z M46.3,45l0.5-0.5c-0.1,0-0.1-0.1-0.2-0.1L46.3,45L46.3,45z M50.8,46.1l0-0.7
	c-0.1,0-0.1,0-0.2,0L50.8,46.1z M48.4,46l0.3-0.7c-0.1,0-0.1,0-0.2,0L48.4,46z M46.8,44.4c0.5,0.4,1.1,0.6,1.7,0.8l0.3-2.9
	L46.8,44.4L46.8,44.4z M52.7,33.9l-0.4,0.6c0.1,0,0.1,0.1,0.2,0.1L52.7,33.9L52.7,33.9z M44.4,36.5l0.6,0.4c0-0.1,0.1-0.1,0.1-0.2
	L44.4,36.5L44.4,36.5z M43.6,38.7l0.7,0.2c0-0.1,0-0.1,0-0.2L43.6,38.7z M43.7,41.1l0.7,0c0-0.1,0-0.1,0-0.2L43.7,41.1L43.7,41.1z
	 M54.6,35.3L54,35.7c0,0,0.1,0.1,0.1,0.2L54.6,35.3z M44.6,43.3l0.7-0.3c0-0.1-0.1-0.1-0.1-0.2L44.6,43.3z M48.7,45.3
	c0.4,0.1,0.9,0.2,1.3,0.2c0.2,0,0.4,0,0.6,0l-0.8-2.9L48.7,45.3z M50.4,33.3L50.3,34c0.1,0,0.1,0,0.2,0L50.4,33.3L50.4,33.3z
	 M48.1,33.6l0.1,0.7c0.1,0,0.1,0,0.2-0.1L48.1,33.6L48.1,33.6z M46,34.7l0.4,0.6c0.1,0,0.1-0.1,0.2-0.1L46,34.7z M52.8,44.7
	c0.6-0.3,1.1-0.7,1.5-1.2l-2.5-1.6L52.8,44.7z M51.7,40c0,1-0.8,1.7-1.7,1.7s-1.7-0.8-1.7-1.7s0.8-1.7,1.7-1.7S51.7,39,51.7,40z
	 M44.4,41c0.1,0.6,0.4,1.2,0.7,1.7l2.2-2L44.4,41z M44.3,38.9c0,0.3-0.1,0.5-0.1,0.8c0,0.4,0,0.7,0.1,1.1l2.8-1L44.3,38.9z
	 M46.6,44.3l1.4-2.6L45.3,43C45.6,43.5,46.1,43.9,46.6,44.3z M50,47.7c4.4,0,7.9-3.6,7.9-7.9c0-4.4-3.6-7.9-7.9-7.9
	c-4.4,0-7.9,3.6-7.9,7.9C42.1,44.1,45.6,47.7,50,47.7z M50,33.2c3.6,0,6.6,3,6.6,6.6c0,3.6-2.9,6.6-6.6,6.6c-3.6,0-6.6-2.9-6.6-6.6
	S46.4,33.2,50,33.2z M45,36.9c-0.3,0.5-0.5,1.1-0.6,1.8l3,0L45,36.9z M71.5,72.8C56.4,69.1,50,76.7,50,76.7
	c-0.1,7.6,10.4,21.4,23.2,23c12.8,1.7,21.1-4.5,21.1-4.5S86.6,76.6,71.5,72.8z M28.5,72.8C13.4,76.6,5.7,95.2,5.7,95.2
	s8.2,6.1,21.1,4.5c12.8-1.7,23.3-15.4,23.2-23C50,76.7,43.6,69.1,28.5,72.8z M50.8,45.4c0.6-0.1,1.2-0.3,1.8-0.6l-1.7-2.4L50.8,45.4
	L50.8,45.4z M8,57H92l2.6-7.8H82.2l2.4-14l3.2-18.6c0,0-8.5-16.7-37.7-16.7C14.7,0,12.1,16.7,12.1,16.7l5.6,32.6H5.4L8,57L8,57z
	 M50,30.6c5,0,9.1,4.1,9.1,9.1c0,5-4.1,9.1-9.1,9.1s-9.1-4.1-9.1-9.1C40.9,34.7,45,30.6,50,30.6z M55.7,39.5c0-0.6-0.2-1.3-0.4-1.9
	l-2.5,1.5L55.7,39.5L55.7,39.5z M55.4,41.6c0.2-0.6,0.3-1.2,0.3-1.8c0,0,0,0,0-0.1l-2.9,0.5L55.4,41.6z M54.4,43.4
	c0.4-0.5,0.7-1,1-1.6l-2.9-0.6L54.4,43.4L54.4,43.4z M55.2,37.4c-0.3-0.6-0.6-1.1-1-1.6l-1.8,2.3L55.2,37.4L55.2,37.4z M54,35.7
	c-0.4-0.4-1-0.8-1.5-1.1l-0.9,2.8L54,35.7L54,35.7z M46.4,35.3c-0.5,0.4-0.9,0.9-1.2,1.4l2.7,1.1L46.4,35.3L46.4,35.3z M50.3,34
	c-0.1,0-0.2,0-0.3,0c-0.6,0-1.1,0.1-1.6,0.2l1.3,2.7L50.3,34L50.3,34z M48.2,34.3c-0.6,0.2-1.2,0.5-1.7,0.9l2.2,2L48.2,34.3z
	 M52.3,34.5c-0.6-0.2-1.2-0.4-1.8-0.5l0.2,2.9L52.3,34.5z"/>
</svg>
