<?xml version="1.0" encoding="utf-8"?>
<!-- Generator: Adobe Illustrator 19.1.1, SVG Export Plug-In . SVG Version: 6.00 Build 0)  -->
<svg version="1.1" id="Layer_1" xmlns="http://www.w3.org/2000/svg" xmlns:xlink="http://www.w3.org/1999/xlink" x="0px" y="0px"
	 viewBox="0 0 100 100" style="enable-background:new 0 0 100 100;" xml:space="preserve">
<style type="text/css">
	.st0{fill:#FFFFFF;}
</style>
<g>
	<path class="st0" d="M6,63.3c1.8,1.5,4.6,3,7,3c2,0,3-1.8,5.3-1.8c0-4.6,0.6-6.8,2-11c0.4-1.2,2.4-6.2,1.5-7.2
		c-0.5-0.5-7.4,1-8.4,1c-4.4,0-9,0.3-13-1.8C-0.6,52.3,0.4,58.7,6,63.3z"/>
	<path class="st0" d="M0.1,46.9c0,0.3,0,0.6,0,0.9C0.1,47.5,0.1,47.2,0.1,46.9z"/>
	<path class="st0" d="M26.3,42.4c6,0.3,12.1-0.9,17.2-3.7c4.9-2.7,10.3-8,15.6-9.7c-2.9-2.9-5.7-4.9-9.8-6.7
		c-2.6-1.2-3.6-1.3-6.1-1.2c-1.3,0.1-3.6,0.7-4,0.6c-0.7,2.2-4.8,5.3-6.2,7.6C30.3,33.5,27.5,37.5,26.3,42.4z"/>
	<path class="st0" d="M15.3,14c0.5-0.5,1.1-1,1.7-1.5C16.4,13,15.8,13.5,15.3,14z"/>
	<path class="st0" d="M74,71.7c3.5-0.9,9-2.7,12.2-4.4c2.9-1.5,4.3-6.3,4.5-6.5c-0.7-4-5-14.3-9-8.2c-0.9,1.3-0.2,3.3-1,4.8
		c-0.8,1.4-2.5,2.1-3.5,3.3c-3.1,3.8-0.4,1.6-0.6,4.4c-0.2,2.6-10.9,1.6-10.4,6.4C66.3,73.3,72.6,72.1,74,71.7z"/>
	<path class="st0" d="M16,17.7c-2.9,0.2-4.2,0.4-5.4,1.5c0.5-0.6,1-1.2,1.5-1.8C5.4,25.2,1,35.1,0.2,46c0.1-0.9,0.2-1.8,0.3-2.7
		c0.1,0.8,0.4,1.5,1,2c0.7,0.4,0.6,0.3,0.3,0.2c4,2.2,12.7,1.4,16.8,0.4c5.2-1.2,7-6.6,8.9-11.2c1.4-3.5,1.9-4.5,4-7.4
		c0.8-1.2,2.7-4.1,3.1-5.7c1.7-0.7,1.8-1.5,0.3-2.4c-0.4-1.1-0.4-2.2,0.3-3.2C28.7,16.1,22.3,17.4,16,17.7z"/>
	<path class="st0" d="M15.2,14.1c-0.5,0.5-1.1,1.1-1.6,1.6C14.2,15.1,14.7,14.6,15.2,14.1z"/>
	<path class="st0" d="M16.9,12.5c-1.1,1.4-1,2.6,1.9,2.9c0,0,0.1,0,0.3,0c0.7,0,0.7,0,0.4,0c2.3-0.2,4.3-1.5,6.6-1.4
		c1.8,0,3.7,0.7,5.5,0.9c3.2,0.2,7.6-0.5,10.5-2.1c3-1.7,4.3-5.1,7-7.1c3.2-2.4,8.4-2.3,11.4-4.5C57,0.4,53.6,0,50,0
		C37.3,0,25.8,4.7,16.9,12.5z"/>
	<path class="st0" d="M57.4,46.5c0.8-3.3,9.4-13.5,4.6-16.5c-2.7-1.7-13.4,7-15.7,8.5c-4,2.7-6.2,3.6-11.1,3.9
		c-3.3,0.2-7.2,0.2-9.5,2.8c-1.8,2-3.1,8.1-4.1,10.8c-1.2,3.1-0.9,4.7,0.4,7.9c2,4.7,2.8,7.6,8.7,8.9c4.4,1,8.6,0,13,0.5
		c2.1,0.2,5.9,2.7,7.9,2.1c0.9-0.3,3.9-3.6,4.2-4.5c0.3-0.9-0.1-4.4-0.3-4.3c0.2-3.2,1.5-6.3,1.7-9.4C57.4,53.5,56.5,50,57.4,46.5z
		 M55.4,66.9c0-0.1,0-0.2,0-0.3C55.4,66.9,55.4,67.2,55.4,66.9z M55.4,66.5C55.4,66.5,55.4,66.5,55.4,66.5
		C55.4,66.4,55.4,66.4,55.4,66.5z"/>
	<path class="st0" d="M98.5,59.7c-2.9,3.2-2.8,1.7-3.8,5.3c-0.8,2.9-0.8,4.8-0.3,8c2.3-4.4,3.9-9.1,4.8-14.1
		C98.8,59.3,97.4,60.8,98.5,59.7z"/>
	<path class="st0" d="M68.1,3.8c4.4,1.3,8.6,3.8,12.1,6.5c-1,0.1-1.9,0.4-2.7,0.8c0.2,0.8,0,1.4-0.9,1.8C73.2,14.6,68,20,66,23.1
		c-1.9,3.1-2.3,1.1-0.7,4.2c0.6,1.1,2.2,2.6,3.2,3.3c3.8,2.6,4.7,2.3,7.5,6.1c0.4,0.6,5.5,7.8,5.6,7.8c1.7,0,3.9-6.3,4.6-7.8
		c2.3-4.6,2.9-8.4,2.3-13.6c-0.3-3-0.9-5.6-2.6-7.9c3.3,3.5,6.3,8.1,5.2,6.5c-0.8,2.4-1.1,2.3-1.1,2.1c0.1-0.2,0.2-0.5,0,0
		c-0.1,0.4-0.1,0.3,0,0.1c-1,3.3,0.2,7.7-0.9,11.2c-1,3.3-4.3,5.7-4.9,9c-0.4,2,1,3.8,2.1,5.4c0.8,1.2,2.3,2.1,3.1,3.5
		c0.9,1.4,1.1,6.1,2.2,7c3.8,2.9,7.1-3.3,8.1-7.5c0-0.9,0.1-1.8,0.1-2.6c0-23.7-16.6-43.6-38.8-48.7C63.5,1.8,65.9,2.8,68.1,3.8z"/>
	<path class="st0" d="M94.4,73c-1.1,2.1-2.3,4-3.6,5.9C92.1,77,93.3,75.1,94.4,73z"/>
	<path class="st0" d="M68.1,3.8c-5-1.4-10.1-1.3-14.8,2.3c-3,2.3-5.5,5.1-8.5,7.4c3.4,1.7,1.5,4.4,5.4,6.3c3.1,1.5,6.8,2.8,9.6,3.7
		c3.1,1.1,1.6,1.9,4.7-0.9c3.9-3.5,7.8-9.3,12.9-11.5C76.8,9,72.8,6.1,68.1,3.8z"/>
	<path class="st0" d="M63.3,70.1c0,0,0.1,0.1,0.5,0.3c0,0,0.1,0,0.1,0c1.9-0.8,2.1-3.3,4.1-4.4c1.1-0.6,2.6-0.2,3.9-1.1
		c1.1-0.7-0.5-1.4-0.3-1.5c2.9-2.8,8.3-6,9.2-11.1c1.3-7.3-2.2-5.7-5.9-11.2c-0.9-1.3-0.5-3.4-1.7-4.5c-1.3-1.2-2.4-0.3-3.5-1.2
		c-0.4-0.3-5.4-6.3-6.2-5.5c2.9,4.4-0.5,8.3-2.8,11.4c-3.2,4.1-2.7,8.7-2.6,13.5c0.1,3.2-2.3,11.2-0.8,13.9c1.4,2.6,3.9,0.6,6.2,1.4
		C63.4,70.1,63.3,70.1,63.3,70.1C63.3,70.1,63.3,70.1,63.3,70.1z"/>
	<path class="st0" d="M13.6,15.7c-0.5,0.6-1,1.1-1.5,1.7C12.6,16.8,13.1,16.3,13.6,15.7z"/>
	<path class="st0" d="M34.9,88.2c-0.1,0,0,0,0.6-0.2c3-1.1,19.6-7.6,16.9-10.5c-3.4-3.7-15.3-1.7-19.8-2.3c-5.4-0.8-8.8-2.9-12,2.7
		c-1.7,3,0.4,8.1,3.1,10.2c3.8,2.9,7.8,1.5,11.7,0.1C35.2,88.1,35.1,88.1,34.9,88.2C35,88.2,34.9,88.2,34.9,88.2z"/>
	<path class="st0" d="M99.7,55.7c0.1-1,0.2-2,0.3-3.1C99.9,53.7,99.8,54.7,99.7,55.7z"/>
	<path class="st0" d="M99.2,58.9c0.2-1,0.3-1.9,0.4-2.9C99.5,57,99.4,57.9,99.2,58.9z"/>
	<path class="st0" d="M68.2,96.6c-0.3-0.1-0.5-0.2-0.7-0.3c0.1,0.1,0.2,0.1,0.1,0.1c-0.1,0-0.1-0.1-0.2-0.1c0,0,0,0-0.1,0
		c-0.5-0.2-0.3-0.2-0.1-0.1c-5.1-3.1-7.2-23.3-16.9-14c-1.7,1.6-1.1,3.1-3.4,3.9c-0.3,0.1-2.9-0.8-3.9-0.6
		c-0.5,0.1-14.7,7.1-17.2,6.6c0.5,0.7,1.5,2.2,1.7,2.6c-2.9-1.5-5.7-3.2-8.2-5.2c5.7,4.5,12.5,7.7,19.8,9.3c0.4,0.1,0.7,0.1,1.1,0.2
		c0.5,0.1,1,0.2,1.4,0.3c0.2,0,0.5,0.1,0.7,0.1c0.5,0.1,1,0.2,1.5,0.2c0.2,0,0.5,0,0.7,0.1c0.5,0.1,1,0.1,1.5,0.1
		c0.7,0.1,1.5,0.1,2.2,0.1c0.6,0,1.1,0,1.7,0c-0.3,0-0.6,0-0.9,0c0.4,0,0.9,0,1.3,0c-0.1,0-0.3,0-0.4,0
		C56.4,100,62.5,98.8,68.2,96.6z"/>
	<path class="st0" d="M39.1,98.8c0.7,0.2,1.5,0.3,2.2,0.4c-0.4-0.1-0.7-0.1-1.1-0.2c-0.2,0-0.4-0.1-0.6-0.1
		C39.5,98.9,39.3,98.8,39.1,98.8z"/>
	<path class="st0" d="M41.4,99.2c0.7,0.1,1.4,0.2,2.2,0.3c-0.4-0.1-0.8-0.1-1.2-0.2c-0.2,0-0.5-0.1-0.7-0.1
		C41.6,99.3,41.5,99.3,41.4,99.2z"/>
	<path class="st0" d="M90.8,78.9c1.5-2.2,2.4-4.4,2.2-6.1c0,0.1,0,0.1,0-0.1c-0.1-0.8,0.1-4.5-0.5-5.3c-0.7-0.8-1.4,0.2-2.4-1.7
		c-1.4,4.2-8.4,6.5-12.3,7.6c-1.7,0.5-3.4,1.2-5.1,1.5c-1,0.2-4.7-0.1-5.3,0.3c-0.7,0.5-1.3,3.5-2.3,4.4c-1.2,1.1-3,2-4.7,2
		c3.3,3.3,2.7,9.7,6.2,12.7c1.5,1.3,3.1,1.4,4.7,1.1c-1,0.5-2,0.9-3.1,1.3C77.3,93,85.2,86.8,90.8,78.9z"/>
	<path class="st0" d="M0.2,54.4c-0.1-0.7-0.1-1.3-0.1-2C0.1,53.1,0.1,53.8,0.2,54.4z"/>
	<path class="st0" d="M67.5,96.3c-0.1,0-0.1-0.1-0.2-0.1C67.3,96.2,67.4,96.3,67.5,96.3C67.4,96.3,67.4,96.3,67.5,96.3z"/>
	<path class="st0" d="M43.7,99.6c0.7,0.1,1.5,0.2,2.2,0.2c-0.4,0-0.9-0.1-1.3-0.1c-0.2,0-0.5,0-0.7-0.1
		C43.8,99.6,43.8,99.6,43.7,99.6z"/>
	<path class="st0" d="M25.4,91.7c0,0.2,0.1,0.4,0.4,0.4C25.6,91.8,25.4,91.6,25.4,91.7z"/>
	<path class="st0" d="M18.8,87.6c1.6,0-1.1-5.1-1.2-6.3c-0.2-1.6,0.8-2.9,0.2-4.6c-0.5-1.5-3-2.7-4-4.2c-1.6-2.6-0.6-2.7-2.8-4.6
		c-4.2-3.6-7-3.1-10.1-8.4C3,70.4,8.7,80.1,16.6,87.2C17.3,87.4,18,87.6,18.8,87.6z"/>
	<path class="st0" d="M0.9,59.5c-0.3-1.5-0.5-3.1-0.7-4.7C0.4,56.4,0.6,58,0.9,59.5z"/>
	<path class="st0" d="M48.3,100c-0.7,0-1.5-0.1-2.2-0.1c0,0-0.1,0-0.1,0C46.8,99.9,47.6,99.9,48.3,100z"/>
	<path class="st0" d="M18.9,89.2c-0.8-0.6-1.6-1.3-2.4-2C17.3,87.9,18.1,88.5,18.9,89.2z"/>
</g>
</svg>
