<?xml version="1.0" encoding="utf-8"?>
<!-- Generator: Adobe Illustrator 19.1.1, SVG Export Plug-In . SVG Version: 6.00 Build 0)  -->
<svg version="1.1" id="Layer_1" xmlns="http://www.w3.org/2000/svg" xmlns:xlink="http://www.w3.org/1999/xlink" x="0px" y="0px"
	 viewBox="0 0 100 100" style="enable-background:new 0 0 100 100;" xml:space="preserve">
<style type="text/css">
	.st0{fill:#FFFFFF;}
</style>
<g>
	<path class="st0" d="M100.1,49.6c0,27.6-22.4,50-50.1,50c-27.6,0-49.9-22.4-49.9-50c0-27.6,22.4-50,50.1-50
		C77.7-0.4,100.1,22,100.1,49.6z M70.5,28.9c-1.6,0.2-2.9,0.4-4.2,0.6c-5.3,1-10.2,2.9-14.3,6.4c-3.1,2.6-6.5,4.8-10.5,5.9
		c-2.4,0.7-4.9,1-7.5,1.5c-0.3,1.6-0.6,3.4-0.8,5.2c-1,6.5-2,12.9-3.1,19.4c-0.5,3-1,5.9-0.3,9c1.4,7,7,12.3,14.3,13.5
		c6.6,1,13.6-2.4,17-8.4c1.4-2.4,2-5.1,2.4-7.8c1-6.4,2-12.8,3-19.3c1-6.4,2-12.8,3-19.3C69.8,33.5,70.1,31.3,70.5,28.9z M63.5,20.7
		c0-3-2.4-5.5-5.4-5.5c-3,0-5.5,2.4-5.5,5.4c0,3,2.5,5.5,5.4,5.5C60.9,26.1,63.5,23.6,63.5,20.7z M43,36.2c0-1.5-1.1-2.7-2.6-2.7
		c-1.4,0-2.6,1.1-2.7,2.5c-0.1,1.4,1.2,2.7,2.6,2.7C41.8,38.7,42.9,37.6,43,36.2z"/>
	<path class="st0" d="M51.7,65.9c0-1.8,1.4-3.2,3.1-3.2c1.7,0,3.2,1.4,3.2,3.2c0,1.8-1.4,3.2-3.2,3.2C53.1,69.1,51.7,67.6,51.7,65.9
		z"/>
	<path class="st0" d="M51.3,54c-0.9,0-1.7-0.7-1.7-1.6c0-1,0.6-1.7,1.6-1.7c0.9,0,1.8,0.7,1.8,1.7C52.9,53.2,52.1,54,51.3,54z"/>
	<path class="st0" d="M39.7,78.7c0,0.9-0.7,1.7-1.6,1.7c-0.9,0-1.7-0.8-1.7-1.7c0-0.9,0.8-1.6,1.7-1.6
		C38.9,77.1,39.7,77.8,39.7,78.7z"/>
</g>
</svg>
