<?xml version="1.0" encoding="utf-8"?>
<!-- Generator: Adobe Illustrator 19.1.1, SVG Export Plug-In . SVG Version: 6.00 Build 0)  -->
<svg version="1.1" id="Layer_1" xmlns="http://www.w3.org/2000/svg" xmlns:xlink="http://www.w3.org/1999/xlink" x="0px" y="0px"
	 viewBox="0 0 100 100" style="enable-background:new 0 0 100 100;" xml:space="preserve">
<style type="text/css">
	.st0{fill:#FFFFFF;}
</style>
<g id="Layer_6">
	<g>
		<path class="st0" d="M6.4,24.5c-8.5,12.2-7.7,28.3-1.7,41.4C11,79.5,23,90.2,37.1,95.3c6.3,2.3,13.2,3,19.9,2.8
			c5.3-0.2,10.5-1.1,15.5-3c7.4-2.8,13.9-7.5,18.9-13.7c1.7-2,3.1-4.2,4.4-6.5c0.6-1.1,1.4-2.3,1.7-3.5c0-0.1,0-0.1,0.1-0.2
			c-5.2,6.8-12.8,11.3-21,13.3c-8.4,2.1-17.8,2-26.2-0.3c-18.4-5-34.4-19.7-39.6-38.2c-2.8-10-2.3-21,2.5-30.4
			C11,18.6,8.7,21.5,6.4,24.5z"/>
		<path class="st0" d="M33.8,13.7c-6.2,9-6.1,21-1.4,30.6c4.9,10.1,14,17.8,24.7,21.3c4.6,1.5,9.8,1.6,14.6,1.3
			c3.8-0.3,7.6-1.2,11.2-2.7c5.2-2.2,9.7-5.9,13.1-10.4c1.1-1.5,2.1-3.1,2.9-4.8c0.3-0.7,1.1-1.8,1.1-2.6c0,0,0-0.1,0-0.1
			c-7.5,10.8-21.6,14.1-33.9,11.1C52.5,54,40.6,43.4,36.6,29.8c-2.3-7.8-1.7-16.4,2.5-23.5C37.3,8.8,35.6,11.3,33.8,13.7z"/>
		<path class="st0" d="M56.9,5.7c-3.8,5.5-4.1,12.6-1.5,18.7c2.4,5.5,6.8,10,12.2,12.7c8.2,4.1,19.3,3.5,25.7-3.5
			c1.6-1.8,2.6-3.8,3.9-5.8c-4.8,7-14,7.6-21.5,5.3c-8.4-2.5-15.3-9.3-17.5-17.9c-1.2-4.5-0.8-9.3,1.5-13.4
			C58.8,3.1,57.9,4.4,56.9,5.7z"/>
	</g>
</g>
</svg>
