<?xml version="1.0" encoding="utf-8"?>
<!-- Generator: Adobe Illustrator 19.1.1, SVG Export Plug-In . SVG Version: 6.00 Build 0)  -->
<svg version="1.1" id="Layer_1" xmlns="http://www.w3.org/2000/svg" xmlns:xlink="http://www.w3.org/1999/xlink" x="0px" y="0px"
	 viewBox="0 0 100 100" style="enable-background:new 0 0 100 100;" xml:space="preserve">
<style type="text/css">
	.st0{fill:#FFFFFF;}
</style>
<g id="Layer_1_1_">
	<g>
		<g>
			<path class="st0" d="M21.6,13h16.6v46.6c0,20.9-10.1,28.3-26,28.3c-4,0-8.9-0.6-12.2-1.7l1.9-13.5c2.3,0.8,5.3,1.4,8.5,1.4
				c7,0,11.4-3.2,11.4-14.4L21.6,13L21.6,13z"/>
			<path class="st0" d="M52.8,69.7c4.4,2.3,11.4,4.6,18.4,4.6c7.6,0,11.6-3.2,11.6-8.2c0-4.6-3.4-7.2-12.4-10.3
				c-12.2-4.4-20.3-11.2-20.3-22.1c0-12.4,10.7-21.9,28-21.9c8.4,0,14.4,1.7,18.8,3.8l-3.8,13.3c-2.8-1.4-8.2-3.4-15.2-3.4
				c-7.2,0-10.6,3.4-10.6,7c0,4.7,4,6.9,13.7,10.5c12.9,4.7,19,11.6,19,22.1c0,12.4-9.3,22.8-29.6,22.8c-8.4,0-16.8-2.3-20.9-4.6
				L52.8,69.7z"/>
		</g>
	</g>
</g>
</svg>
