<?xml version="1.0" encoding="utf-8"?>
<!-- Generator: Adobe Illustrator 19.1.1, SVG Export Plug-In . SVG Version: 6.00 Build 0)  -->
<svg version="1.1" id="Layer_1" xmlns="http://www.w3.org/2000/svg" xmlns:xlink="http://www.w3.org/1999/xlink" x="0px" y="0px"
	 viewBox="0 0 100 100" style="enable-background:new 0 0 100 100;" xml:space="preserve">
<style type="text/css">
	.st0{fill:#FFFFFF;}
</style>
<path class="st0" d="M11.9,69.1c-3.1,0-5.4-0.5-6.8-1.6c-1.4-1.1-2.1-3-2.1-5.8v-4.9C3,54.2,2,53,0,53v-3.8c2,0,3-1.3,3-4v-4.7
	c0-2.9,0.7-4.9,2.1-6.1c1.4-1.2,3.7-1.8,6.8-1.8v3.8c-2.3,0-3.4,1.2-3.4,3.7v4.5c0,3.4-1.1,5.5-3.4,6.4v0.1c2.3,0.8,3.4,2.9,3.4,6.3
	v4.2c0,1.3,0.3,2.3,0.8,2.8c0.5,0.6,1.4,0.8,2.6,0.8L11.9,69.1"/>
<path class="st0" d="M22,54.9c0,0.9,0.2,1.6,0.7,2c0.4,0.5,1,0.7,1.8,0.7c0.4,0,0.7,0,1.1-0.1c0.4-0.1,0.7-0.1,1.1-0.2V62
	c-0.8,0.2-1.6,0.4-2.5,0.5c-0.9,0.1-1.8,0.2-2.7,0.2c-0.9,0-1.7-0.1-2.4-0.4c-0.7-0.3-1.3-0.7-1.8-1.2c-0.5-0.5-0.9-1.2-1.2-2
	c-0.3-0.8-0.4-1.6-0.4-2.6V30.9H22L22,54.9"/>
<path class="st0" d="M42.4,49.6c0-2.8-1.2-4.2-3.6-4.2c-1,0-1.9,0.4-2.7,1.2c-0.8,0.8-1.2,1.8-1.4,3H42.4 M48.3,53.4H34.7
	c0.2,3.1,2.1,4.7,5.8,4.7c2.3,0,4.3-0.6,6.1-1.8v4.8c-1.9,1.1-4.5,1.6-7.5,1.6c-3.4,0-6-0.9-7.9-2.8c-1.9-1.9-2.8-4.5-2.8-7.9
	c0-3.5,1-6.3,3-8.3c2-2,4.5-3.1,7.4-3.1c3,0,5.4,0.9,7,2.7c1.7,1.8,2.5,4.2,2.5,7.3L48.3,53.4L48.3,53.4z"/>
<path class="st0" d="M50.8,61.5v-5.7c1.1,0.8,2.2,1.3,3.2,1.7c1.1,0.4,2.1,0.5,3,0.5c1.2,0,2.1-0.1,2.8-0.4c0.7-0.3,1-0.7,1-1.2
	c0-0.4-0.2-0.8-0.5-1c-0.3-0.3-0.7-0.5-1.2-0.7s-1-0.4-1.6-0.6c-0.6-0.2-1.1-0.3-1.6-0.6c-0.8-0.3-1.6-0.7-2.2-1
	c-0.6-0.4-1.2-0.8-1.6-1.3c-0.4-0.5-0.8-1-1-1.7c-0.2-0.6-0.3-1.4-0.3-2.2c0-1.2,0.3-2.2,0.8-3c0.5-0.8,1.2-1.5,2.1-2.1
	c0.9-0.5,1.9-0.9,3-1.2c1.1-0.3,2.3-0.4,3.5-0.4c1,0,1.9,0.1,2.9,0.2c1,0.1,2,0.4,2.9,0.6v5.2c-0.9-0.5-1.8-0.8-2.8-1
	c-1-0.2-1.9-0.3-2.9-0.3c-0.4,0-0.9,0-1.3,0.1c-0.4,0.1-0.7,0.2-1,0.3c-0.3,0.1-0.5,0.3-0.7,0.5c-0.2,0.2-0.3,0.4-0.3,0.7
	c0,0.4,0.1,0.7,0.4,1c0.3,0.3,0.6,0.5,1,0.7c0.4,0.2,0.9,0.4,1.4,0.5c0.5,0.2,1,0.3,1.5,0.5c0.9,0.3,1.7,0.6,2.4,1
	c0.7,0.4,1.3,0.8,1.8,1.3c0.5,0.5,0.9,1,1.2,1.7c0.3,0.6,0.4,1.4,0.4,2.3c0,1.2-0.3,2.3-0.8,3.2c-0.5,0.9-1.3,1.6-2.2,2.2
	c-0.9,0.6-2,1-3.2,1.2c-1.2,0.3-2.4,0.4-3.7,0.4C55,62.7,52.9,62.3,50.8,61.5"/>
<path class="st0" d="M69.5,61.5v-5.7c1.1,0.8,2.2,1.3,3.2,1.7c1.1,0.4,2.1,0.5,3,0.5c1.2,0,2.1-0.1,2.8-0.4c0.7-0.3,1-0.7,1-1.2
	c0-0.4-0.2-0.8-0.5-1s-0.7-0.5-1.2-0.7c-0.5-0.2-1-0.4-1.6-0.6c-0.6-0.2-1.1-0.3-1.6-0.6c-0.8-0.3-1.6-0.7-2.2-1
	c-0.6-0.4-1.2-0.8-1.6-1.3c-0.4-0.5-0.8-1-1-1.7c-0.2-0.6-0.3-1.4-0.3-2.2c0-1.2,0.3-2.2,0.8-3c0.5-0.8,1.2-1.5,2.1-2.1
	c0.9-0.5,1.9-0.9,3-1.2c1.1-0.3,2.3-0.4,3.5-0.4c1,0,1.9,0.1,2.9,0.2c1,0.1,2,0.4,2.9,0.6v5.2c-0.9-0.5-1.8-0.8-2.8-1
	c-1-0.2-1.9-0.3-2.9-0.3c-0.4,0-0.9,0-1.3,0.1c-0.4,0.1-0.7,0.2-1,0.3c-0.3,0.1-0.5,0.3-0.7,0.5c-0.2,0.2-0.3,0.4-0.3,0.7
	c0,0.4,0.1,0.7,0.4,1c0.3,0.3,0.6,0.5,1,0.7c0.4,0.2,0.9,0.4,1.4,0.5c0.5,0.2,1,0.3,1.5,0.5c0.9,0.3,1.7,0.6,2.4,1
	c0.7,0.4,1.3,0.8,1.8,1.3c0.5,0.5,0.9,1,1.2,1.7c0.3,0.6,0.4,1.4,0.4,2.3c0,1.2-0.3,2.3-0.8,3.2c-0.5,0.9-1.3,1.6-2.2,2.2
	c-0.9,0.6-2,1-3.2,1.2c-1.2,0.3-2.4,0.4-3.7,0.4C73.7,62.7,71.5,62.3,69.5,61.5"/>
<path class="st0" d="M100,53c-2,0-3,1.3-3,3.8v4.7c0,2.9-0.7,4.9-2,5.9c-1.3,1.1-3.5,1.6-6.5,1.6v-3.8c1.2,0,2-0.3,2.6-0.8
	c0.5-0.6,0.8-1.5,0.8-2.8v-4.4c0-3.3,1-5.3,3-6.1v-0.1c-2-0.9-3-3.1-3-6.6v-4.3c0-2.4-1.1-3.7-3.4-3.7v-3.8c3,0,5.1,0.6,6.5,1.8
	c1.3,1.2,2,3.2,2,6v4.8c0,2.6,1,4,3,4L100,53"/>
</svg>
