<?xml version="1.0" encoding="utf-8"?>
<!-- Generator: Adobe Illustrator 19.1.1, SVG Export Plug-In . SVG Version: 6.00 Build 0)  -->
<svg version="1.1" id="Layer_1" xmlns="http://www.w3.org/2000/svg" xmlns:xlink="http://www.w3.org/1999/xlink" x="0px" y="0px"
	 viewBox="0 0 100 100" style="enable-background:new 0 0 100 100;" xml:space="preserve">
<style type="text/css">
	.st0{fill:none;stroke:#FFFFFF;stroke-width:2;stroke-dasharray:6;}
	.st1{fill:#FFFFFF;}
</style>
<path class="st0" d="M93.5,27.8c12.2,24,2.7,53.4-21.3,65.6S18.8,96.2,6.5,72.2S3.8,18.7,27.8,6.5C43.4-1.4,62-0.4,76.6,9.1"/>
<g>
	<path class="st1" d="M50,12.2c-20.8,0-37.7,16.9-37.7,37.7S29.2,87.7,50,87.7S87.7,70.8,87.7,50S70.8,12.2,50,12.2z M39.8,68.9
		L39.8,68.9l-15.4,0V44.1h3.2v22h12.2V68.9z M56.8,68.9h-2.5v-2.8c-1.7,2.3-3.3,3.3-5.9,3.3c-3.5,0-5.7-1.9-5.7-4.9V51.1h2.8v12.3
		c0,2.1,1.4,3.5,3.7,3.5c3,0,4.9-2.4,4.9-6v-9.8h2.8V68.9z M54.6,34.4c0-6.1,4.9-11.1,11.1-11.1c6.1,0,11.1,4.9,11.1,11.1
		s-4.9,11.1-11.1,11.1C59.5,45.4,54.6,40.5,54.6,34.4z M77.5,68.8c-0.9,0.2-1.4,0.3-1.9,0.3c-1.4,0-2.6-1-2.9-2.3
		c-1.6,1.7-3.8,2.6-6,2.6c-3.6,0-5.8-1.9-5.8-5.1c0-2.2,1.1-3.8,3.1-4.6c1.1-0.4,1.7-0.6,5.7-1.1c2.2-0.3,3-0.8,3-2v-0.7
		c0-1.7-1.4-2.6-4-2.6c-2.6,0-3.9,1-4.2,3.2h-2.9c0.2-4.1,2.8-5.8,7.1-5.8c4.4,0,6.7,1.7,6.7,4.9v9.9c0,0.9,0.5,1.4,1.5,1.4
		c0.2,0,0.3,0,0.6-0.1L77.5,68.8L77.5,68.8z"/>
	<path class="st1" d="M63.7,64.2c0,1.9,1.3,2.7,3.5,2.7c2.8,0,5.3-1.6,5.3-4.2v-2.6c-1,0.4-1.6,0.6-4.6,1
		C64.9,61.5,63.7,62.3,63.7,64.2z"/>
</g>
<circle class="st1" cx="87.7" cy="12.2" r="11.1"/>
</svg>
