<?xml version="1.0" encoding="utf-8"?>
<!-- Generator: Adobe Illustrator 19.1.1, SVG Export Plug-In . SVG Version: 6.00 Build 0)  -->
<svg version="1.1" id="Layer_1" xmlns="http://www.w3.org/2000/svg" xmlns:xlink="http://www.w3.org/1999/xlink" x="0px" y="0px"
	 viewBox="0 0 100 100" style="enable-background:new 0 0 100 100;" xml:space="preserve">
<style type="text/css">
	.st0{fill:#FFFFFF;}
</style>
<g id="move">
	<path class="st0" d="M18.8,68.8V31.3L0,50L18.8,68.8z M81.3,31.3v37.5L100,50L81.3,31.3z M31.3,18.8h37.5L50,0L31.3,18.8z M50,100
		l18.8-18.8H31.3L50,100z M50,31.2c-10.4,0-18.8,8.4-18.8,18.8S39.6,68.7,50,68.8c10.4,0,18.7-8.4,18.7-18.8h0
		C68.7,39.6,60.4,31.3,50,31.2z M50,62.5c-6.9,0-12.5-5.6-12.5-12.5c0-6.9,5.6-12.5,12.5-12.5c6.9,0,12.5,5.6,12.5,12.5h0
		C62.5,56.9,56.9,62.5,50,62.5z"/>
</g>
</svg>
