<?xml version="1.0" encoding="utf-8"?>
<!-- Generator: Adobe Illustrator 19.1.1, SVG Export Plug-In . SVG Version: 6.00 Build 0)  -->
<svg version="1.1" id="Layer_1" xmlns="http://www.w3.org/2000/svg" xmlns:xlink="http://www.w3.org/1999/xlink" x="0px" y="0px"
	 viewBox="0 0 100 100" style="enable-background:new 0 0 100 100;" xml:space="preserve">
<style type="text/css">
	.st0{fill:#FFFFFF;}
</style>
<g>
	<path class="st0" d="M0,76.3c0-1.9,0.6-3.5,1.7-4.7c1.1-1.3,2.8-1.9,5.1-1.9c2.2,0,4,0.6,5.1,1.9c1.2,1.3,1.7,2.8,1.7,4.7
		c0,1.8-0.6,3.3-1.7,4.6C10.7,82,9,82.6,6.7,82.6c-2.2,0-3.9-0.6-5.1-1.8S0,78.1,0,76.3z M0.1,24c0-1.9,0.6-3.5,1.7-4.7
		c1.1-1.3,2.8-1.9,5.1-1.9s4,0.6,5.1,1.9c1.2,1.3,1.7,2.8,1.7,4.7c0,1.8-0.6,3.3-1.7,4.6c-1.2,1.2-2.9,1.8-5.1,1.8s-3.9-0.6-5.1-1.8
		C0.6,27.4,0.1,25.9,0.1,24z"/>
	<path class="st0" d="M28.3,76.3c0-1.9,0.6-3.5,1.7-4.7c1.1-1.3,2.8-1.9,5.1-1.9c2.2,0,4,0.6,5.1,1.9c1.2,1.3,1.7,2.8,1.7,4.7
		c0,1.8-0.6,3.3-1.7,4.6C39,82,37.3,82.6,35,82.6c-2.2,0-3.9-0.6-5.1-1.8C28.8,79.6,28.3,78.1,28.3,76.3z M28.3,24
		c0-1.9,0.6-3.5,1.7-4.7c1.1-1.3,2.8-1.9,5.1-1.9s4,0.6,5.1,1.9c1.2,1.3,1.7,2.8,1.7,4.7c0,1.8-0.6,3.3-1.7,4.6
		c-1.2,1.2-2.9,1.8-5.1,1.8s-3.9-0.6-5.1-1.8C28.9,27.4,28.3,25.9,28.3,24z"/>
	<path class="st0" d="M89.1,82c-0.6-1.4-1.1-3.7-1.4-7c-3.7,5.4-8.4,8.2-14.2,8.2c-5.8,0-10.3-1.6-13.6-4.9
		c-3.3-3.3-4.9-7.8-4.9-13.7c0-6.5,2.2-11.7,6.6-15.5c4.4-3.8,10.5-5.8,18.2-5.9h7.7v-6.8c0-3.8-0.8-6.5-2.5-8.2
		c-1.7-1.6-4.3-2.4-7.7-2.4c-3.2,0-5.7,0.9-7.7,2.8c-2,1.9-3,4.2-3,7.1H56.2c0-3.3,1-6.4,2.9-9.4c1.9-3,4.5-5.3,7.8-7
		c3.3-1.7,6.9-2.5,10.9-2.5c6.5,0,11.5,1.6,14.9,4.9c3.4,3.3,5.2,8,5.2,14.2v32.3c0,4.9,0.7,9.2,2,12.8V82H89.1z M75.2,73.7
		c2.6,0,5-0.7,7.3-2.1c2.3-1.4,4-3.2,5.1-5.3V50.9h-5.9c-5,0.1-8.9,1.2-11.8,3.3c-2.9,2.1-4.3,5.2-4.3,9c0,3.6,0.7,6.3,2.2,7.9
		C69.2,72.8,71.7,73.7,75.2,73.7z"/>
</g>
</svg>
